<svg width="10" height="10" viewBox="0 0 8 8" fill="none" xmlns="http://www.w3.org/2000/svg"><path d="M4.84961 1.24933C4.84961 1.74638 5.25294 2.14972 5.75 2.14972C6.24706 2.14972 6.65039 1.74638 6.65039 1.24933V1.00128C7.40007 1.02804 8 1.64353 8 2.39972V6.59894C8 7.37213 7.37281 7.99933 6.59961 7.99933H1.40039C0.627192 7.99933 0 7.37213 0 6.59894V2.39972C0 1.64353 0.599934 1.02804 1.34961 1.00128V1.24933C1.34961 1.74638 1.75294 2.14972 2.25 2.14972C2.74706 2.14972 3.15039 1.74638 3.15039 1.24933V0.999327H4.84961V1.24933ZM1.90039 2.99933C1.51381 2.99933 1.20022 3.31294 1.2002 3.69952V6.09894C1.2002 6.48554 1.51379 6.79913 1.90039 6.79913H6.10059C6.48701 6.79892 6.7998 6.4854 6.7998 6.09894V3.69952C6.79978 3.31307 6.48699 2.99954 6.10059 2.99933H1.90039Z" fill="#FF5500"></path><path d="M1.75 1.24902V0.654297C1.75011 0.378245 1.97392 0.154297 2.25 0.154297C2.52608 0.154297 2.74989 0.378245 2.75 0.654297V1.24902C2.75 1.52517 2.52614 1.74902 2.25 1.74902C1.97386 1.74902 1.75 1.52517 1.75 1.24902ZM5.25 1.24902V0.654297C5.25001 0.37816 5.47386 0.154297 5.75 0.154297C6.02614 0.154297 6.24999 0.37816 6.25 0.654297V1.24902C6.25 1.52517 6.02614 1.74902 5.75 1.74902C5.47386 1.74902 5.25 1.52517 5.25 1.24902Z" fill="#FF5500"></path></svg>
