<svg width="16" height="16" viewBox="0 0 16 16" fill="currentColor" xmlns="http://www.w3.org/2000/svg"><path d="M8.20508 6.68359C8.39787 6.68363 8.55526 6.7483 8.66504 6.88477C8.77168 7.01309 8.82129 7.18249 8.82129 7.38281V10.7939H9.59082C9.75194 10.7939 9.89164 10.8472 10.0039 10.9541C10.1165 11.0614 10.1737 11.197 10.1738 11.3555C10.1738 11.5141 10.1166 11.6504 10.0039 11.7578C9.89166 11.8647 9.75191 11.918 9.59082 11.918H6.79785C6.6368 11.9179 6.497 11.8647 6.38477 11.7578C6.27205 11.6504 6.21582 11.5139 6.21582 11.3555C6.21592 11.1972 6.27224 11.0614 6.38477 10.9541C6.497 10.8472 6.6368 10.794 6.79785 10.7939H7.56738V7.80664H6.91504C6.7539 7.80664 6.61423 7.75341 6.50195 7.64648C6.38939 7.53918 6.33204 7.40375 6.33203 7.24512C6.33203 7.08648 6.3894 6.95106 6.50195 6.84375C6.61423 6.73682 6.7539 6.68359 6.91504 6.68359H8.20508Z"/><path d="M7.9375 3.74609C8.20931 3.74615 8.44013 3.8412 8.625 4.03027C8.81444 4.21971 8.91113 4.45387 8.91113 4.72656C8.91113 4.995 8.8158 5.22685 8.62695 5.41504C8.4372 5.60508 8.2059 5.7002 7.9375 5.7002C7.6691 5.7002 7.4372 5.60508 7.24805 5.41602C7.05888 5.22685 6.96389 4.995 6.96387 4.72656C6.96387 4.45396 7.05855 4.21977 7.24805 4.03027C7.43722 3.84113 7.66905 3.74609 7.9375 3.74609Z"/><path fill-rule="evenodd" clip-rule="evenodd" d="M8 0.92C11.91 0.92 15.08 4.09 15.08 8C15.08 11.91 11.91 15.08 8 15.08C4.09 15.08 0.92 11.91 0.92 8C0.92 4.09 4.09 0.92 8 0.92ZM8 2.25C4.82 2.25 2.25 4.82 2.25 8C2.25 11.18 4.82 13.75 8 13.75C11.18 13.75 13.75 11.18 13.75 8C13.75 4.82 11.18 2.25 8 2.25Z"/></svg>
