<svg xmlns="http://www.w3.org/2000/svg" width="32" height="24" fill="none" viewBox="0 0 32 24"><path fill="#fff" fill-rule="evenodd" d="M16.145 3.816a.62.62 0 0 0 .167-.61A4.495 4.495 0 0 0 12 0C9.51 0 7.5 2.01 7.5 4.5v7.125c0 .284.34.43.546.236l.719-.678A.75.75 0 0 0 9 10.637V4.5c0-1.65 1.35-3 3-3s3 1.35 3 3c0 .17.206.255.326.135zM16.5 6.29 15 7.79V12c0 1.65-1.35 3-3 3a3.01 3.01 0 0 1-2.637-1.574L8.269 14.52A4.49 4.49 0 0 0 12 16.5c2.49 0 4.5-2.01 4.5-4.5zM5.915 14.046a.86.86 0 0 0 .217-.789A6 6 0 0 1 6 12c0-.42-.33-.75-.75-.75s-.75.33-.75.75c0 .045 0 .105.015.15q.015.831.2 1.608c.131.548.802.686 1.2.288m.214 2.614 1.066-1.065A5.99 5.99 0 0 0 12 18c3.315 0 6-2.685 6-6 0-.42.33-.75.75-.75s.75.33.75.75c0 .045 0 .105-.015.15-.06 3.81-2.985 6.93-6.735 7.305V22.5h3c.42 0 .75.33.75.75s-.33.75-.75.75h-7.5c-.42 0-.75-.33-.75-.75s.33-.75.75-.75h3v-3.045a7.5 7.5 0 0 1-5.12-2.795" clip-rule="evenodd"></path><path fill="#F05" fill-rule="evenodd" d="M17.257 20.765A1.5 1.5 0 0 0 18.565 23h10.87a1.5 1.5 0 0 0 1.308-2.235l-5.436-9.663a1.5 1.5 0 0 0-2.614 0zM23.35 17.6v-2.95a.65.65 0 0 1 1.3 0v2.95a.65.65 0 0 1-1.3 0m-.1 2.65a.75.75 0 1 1 1.5 0 .75.75 0 0 1-1.5 0" clip-rule="evenodd"></path><path stroke="#F05" stroke-linecap="round" stroke-linejoin="round" stroke-width="1.5" d="m3.375 19.875 17.25-17.25"></path><path fill="#F05" fill-rule="evenodd" d="M17.257 20.765A1.5 1.5 0 0 0 18.565 23h10.87a1.5 1.5 0 0 0 1.308-2.235l-5.436-9.663a1.5 1.5 0 0 0-2.614 0zM23.35 17.6v-2.95a.65.65 0 0 1 1.3 0v2.95a.65.65 0 0 1-1.3 0m-.1 2.65a.75.75 0 1 1 1.5 0 .75.75 0 0 1-1.5 0" clip-rule="evenodd"></path></svg>