<svg viewBox="0 0 16 16" fill="currentColor" xmlns="http://www.w3.org/2000/svg"><path fill-rule="evenodd" clip-rule="evenodd" d="M7.7041 1.1799C7.8988 1.14893 8.0973 1.14895 8.29199 1.1799C8.51178 1.21492 8.72476 1.30374 9.14941 1.48068L12.6318 2.93185C13.1928 3.16558 13.4738 3.28265 13.7139 3.50119C13.9061 3.67639 14.1003 3.95938 14.1953 4.20139C14.3137 4.50333 14.3229 4.76848 14.3389 5.29709C14.3905 7.00471 14.258 9.62154 13.1768 11.3586L13.0078 11.6115C12.1122 12.8708 10.4799 14.0236 9.32227 14.7414L9.05273 14.9065C8.8115 15.0504 8.6402 15.1338 8.41016 15.1858L8.2168 15.2151C8.00668 15.2346 7.7587 15.2247 7.58594 15.1858C7.35617 15.1339 7.1852 15.0501 6.94434 14.9065L6.6748 14.7414C5.51717 14.0236 3.88399 12.871 2.98828 11.6115L2.81934 11.3586C1.87324 9.83866 1.65394 7.64511 1.64844 5.97678L1.6582 5.29709C1.67219 4.83485 1.67984 4.57368 1.76074 4.31369L1.80078 4.20139C1.89574 3.95942 2.09001 3.67641 2.28223 3.50119C2.46218 3.33737 2.66566 3.23071 2.99219 3.08908L3.36523 2.93185L6.84668 1.48068C7.16529 1.34793 7.3647 1.26497 7.53711 1.21701L7.7041 1.1799ZM11.7266 5.59103C11.5005 5.34879 11.1202 5.33566 10.8779 5.56174L7.01562 9.16623L5.42578 7.57639C5.19147 7.34208 4.81244 7.34209 4.57812 7.57639C4.34401 7.81072 4.34388 8.18979 4.57812 8.42404L6.57812 10.424C6.80669 10.6523 7.17485 10.659 7.41113 10.4387L11.6973 6.43869C11.9391 6.21273 11.9521 5.83324 11.7266 5.59103Z"/></svg>
