<svg viewBox="0 0 16 16" fill="currentColor" xmlns="http://www.w3.org/2000/svg"><path d="M8.50391 5.35861C8.61278 5.36604 8.64478 5.37834 8.65137 5.38107C8.74898 5.42169 8.82663 5.49925 8.86719 5.59689C8.87033 5.60464 8.88241 5.63829 8.88965 5.74435C8.89738 5.85852 8.89844 6.0098 8.89844 6.25021V6.6506H7.09766V6.25021C7.09766 6.0098 7.09872 5.85852 7.10645 5.74435C7.11368 5.63829 7.12577 5.60465 7.12891 5.59689C7.16946 5.49925 7.24711 5.42169 7.34473 5.38107C7.35132 5.37834 7.38332 5.36604 7.49219 5.35861C7.60643 5.35084 7.75717 5.34982 7.99805 5.34982C8.23892 5.34982 8.38966 5.35084 8.50391 5.35861Z"/><path fill-rule="evenodd" clip-rule="evenodd" d="M7.7041 1.1799C7.8988 1.14893 8.0973 1.14895 8.29199 1.1799C8.51178 1.21492 8.72476 1.30374 9.14941 1.48068L12.6318 2.93185C13.1928 3.16558 13.4738 3.28265 13.7139 3.50119C13.9061 3.67639 14.1003 3.95938 14.1953 4.20139C14.3137 4.50333 14.3229 4.76848 14.3389 5.29709C14.3905 7.00471 14.258 9.62154 13.1768 11.3586L13.0078 11.6115C12.1122 12.8708 10.4799 14.0236 9.32227 14.7414L9.05273 14.9065C8.8115 15.0504 8.6402 15.1338 8.41016 15.1858L8.2168 15.2151C8.00668 15.2346 7.7587 15.2247 7.58594 15.1858C7.35617 15.1339 7.1852 15.0501 6.94434 14.9065L6.6748 14.7414C5.51717 14.0236 3.88399 12.871 2.98828 11.6115L2.81934 11.3586C1.87324 9.83866 1.65394 7.64511 1.64844 5.97678L1.6582 5.29709C1.67219 4.83485 1.67984 4.57368 1.76074 4.31369L1.80078 4.20139C1.89574 3.95942 2.09001 3.67641 2.28223 3.50119C2.46218 3.33737 2.66566 3.23071 2.99219 3.08908L3.36523 2.93185L6.84668 1.48068C7.16529 1.34793 7.3647 1.26497 7.53711 1.21701L7.7041 1.1799ZM7.99805 4.1506C7.77333 4.1506 7.57475 4.15012 7.41016 4.16135C7.2402 4.17295 7.06287 4.19835 6.88574 4.2717C6.49381 4.43412 6.18189 4.74594 6.01953 5.13791C5.94635 5.31487 5.92076 5.49253 5.90918 5.66232C5.898 5.82679 5.89844 6.0258 5.89844 6.25021V6.76682C5.31207 7.00417 4.89844 7.57874 4.89844 8.25021V9.1506C4.89844 9.42023 4.89801 9.65912 4.91406 9.85568C4.93074 10.0593 4.9676 10.2714 5.07227 10.4768C5.22567 10.7775 5.47066 11.0227 5.77148 11.176C5.97704 11.2807 6.18881 11.3175 6.39258 11.3342C6.5893 11.3503 6.82779 11.3498 7.09766 11.3498H8.89844C9.16831 11.3498 9.4068 11.3503 9.60352 11.3342C9.80728 11.3175 10.0191 11.2807 10.2246 11.176C10.5254 11.0227 10.7704 10.7775 10.9238 10.4768C11.0285 10.2714 11.0654 10.0593 11.082 9.85568C11.0981 9.65912 11.0977 9.42023 11.0977 9.1506V8.25021C11.0977 7.57874 10.684 7.00417 10.0977 6.76682V6.25021C10.0977 6.0258 10.0981 5.82679 10.0869 5.66232C10.0753 5.49253 10.0497 5.31487 9.97656 5.13791C9.8142 4.74594 9.50229 4.43412 9.11035 4.2717C8.93322 4.19835 8.7559 4.17295 8.58594 4.16135C8.42134 4.15012 8.22277 4.1506 7.99805 4.1506Z"/></svg>
